<?xml version="1.0" encoding="UTF-8" standalone="no"?>
<svg
   version="1.0"
   width="260.7991pt"
   height="192.52771pt"
   viewBox="0 0 260.79911 192.52771"
   preserveAspectRatio="xMidYMid"
   id="svg75"
   sodipodi:docname="logo.svg"
   inkscape:export-filename="..\Documents\Projetos Dev\typography-tapestry-tool\public\terrano-logo.svg"
   inkscape:export-xdpi="96"
   inkscape:export-ydpi="96"
   xmlns:inkscape="http://www.inkscape.org/namespaces/inkscape"
   xmlns:sodipodi="http://sodipodi.sourceforge.net/DTD/sodipodi-0.dtd"
   xmlns="http://www.w3.org/2000/svg"
   xmlns:svg="http://www.w3.org/2000/svg">
  <defs
     id="defs75" />
  <sodipodi:namedview
     id="namedview75"
     pagecolor="#505050"
     bordercolor="#eeeeee"
     borderopacity="1"
     inkscape:showpageshadow="0"
     inkscape:pageopacity="0"
     inkscape:pagecheckerboard="0"
     inkscape:deskcolor="#505050"
     inkscape:document-units="pt">
    <inkscape:page
       x="0"
       y="0"
       width="260.7991"
       height="192.52771"
       id="page1"
       margin="0"
       bleed="0" />
  </sodipodi:namedview>
  <g
     id="g86"
     transform="translate(-34.647548,-70.175621)">
    <path
       d="m 153.3681,0.36395 c -87.5,0.5 -95.5,0.7 -101,2.4 -18.6,5.5 -35.4,19.6 -43.8,36.6 -8.7,17.7 -8.1,9.9 -8.5,112.5 -0.3,98 0.3,121.2 3.7,130.8 4.1,11.8 9.2,19.9 18.1,28.7 9.4,9.5 18.6,15 32,19.2 l 7.5,2.3 h 103.5 103.5 l 7.5,-2.3 c 22.5,-7 40.8,-24.1 48.6,-45.5 4.3,-11.9 4.5,-20.1 4.2,-124.7 -0.4,-98 -0.4,-98.5 -2.6,-106.4 -6.9,-24.7 -25.6,-43.8 -50.3,-51.4 -9.2,-2.8 -14.2,-2.9 -122.4,-2.2 z m -1.8,71.6 21.1,0.6 2.7,4.9 c 1.4,2.7 2.3,4.9 1.8,4.9 -0.4,0.1 -2.1,1.1 -3.7,2.4 l -2.8,2.3 3.7,9.4 c 3,7.6 13.3,31.7 14,32.6 0.1,0.2 2.6,0.7 5.6,1.3 3,0.6 6.2,1.3 7.2,1.6 1.6,0.5 1.7,-0.5 1.7,-11.5 0,-11.6 0.1,-12.1 2.1,-12.1 1.9,0 2,-0.5 1.8,-8.5 l -0.2,-8.5 5.2,-5.5 c 3.6,-3.7 6,-5.5 7.7,-5.5 2.2,0 2.4,0.4 2.4,4.6 0,3.7 -0.6,5.3 -3,8.1 -2.6,2.9 -3,4.2 -3,8.9 0,4.7 0.3,5.7 2,6.1 1.9,0.5 2,1.4 2,13.9 0,13 0.1,13.4 2.3,13.9 1.2,0.3 10.1,2.1 19.7,4.1 9.6,1.9 19.1,3.9 21.1,4.5 l 3.6,0.9 3.3,12.3 c 3.8,14 4.7,20.6 3.2,23.3 -1,1.8 -1.6,1.9 -8.2,1 -18.3,-2.5 -36,6.3 -44.2,22.1 -2,3.7 -3.9,8.3 -4.3,10 l -0.7,3.3 h -27.4 -27.5 l 0.7,-2.2 c 0.3,-1.2 0.7,-6.7 0.7,-12.2 0,-19.7 -6.3,-34.6 -20.3,-48.6 -10.3,-10.4 -20.6,-16 -34,-18.6 -19.7,-3.9 -42,1.5 -56.4,13.5 -2.6,2.3 -5.1,4.1 -5.5,4.1 -0.4,0 -2,-1.3 -3.5,-2.9 l -2.8,-3 2,-2.6 c 1.2,-1.5 6.8,-7.5 12.4,-13.4 l 10.3,-10.8 8.6,-1.8 8.5,-1.9 3.2,-13.5 c 1.8,-7.5 3.2,-13.9 3.2,-14.2 0,-0.4 -1.6,-1 -3.5,-1.3 -1.9,-0.4 -3.6,-1 -3.9,-1.4 -0.2,-0.4 0.5,-4.2 1.7,-8.6 l 2.1,-7.8 23,0.6 c 12.7,0.3 32.6,0.9 44.3,1.2 z m -37.7,73.8 c 9,3.1 19.5,10 25.5,17 15.9,18.1 18.8,47.7 6.9,69.2 -6.8,12.4 -19.2,22.9 -32.4,27.5 -8.9,3 -25.1,3.8 -34,1.5 -25.2,-6.3 -43.3,-28.7 -44.8,-55.3 -0.6,-11.5 0.9,-19.6 5.3,-28.8 7.8,-16.2 23.7,-29.2 40.8,-33.1 9,-2 23.3,-1.2 32.7,2 z m 160.5,46.5 c 8.7,4 12.9,8.2 17.2,16.9 3.5,7 3.8,8.1 3.7,16.6 0,7.7 -0.4,10 -2.6,14.7 -6.7,14.7 -20,22.6 -36.2,21.7 -13.2,-0.7 -24.2,-8.1 -30.2,-20.4 -2.6,-5.3 -2.9,-6.9 -2.9,-15.9 0,-8.7 0.3,-10.7 2.7,-15.7 8.7,-18.7 29.8,-26.5 48.3,-17.9 z"
       id="path28"
       style="fill:#353230;fill-opacity:1;stroke:none;stroke-width:0.1" />
    <path
       d="m 104.5681,90.06395 c -0.3,0.5 -1.2,5.5 -2.1,11.3 -0.9,5.8 -1.9,11.5 -2.2,12.7 l -0.4,2.3 h 17.2 17.3 l 4.4,6.8 c 2.4,3.7 10,14.7 16.9,24.4 l 12.6,17.8 h 5.3 5.3 v -13.3 l -0.1,-13.2 -9.7,-24.5 -9.8,-24.5 -27.1,-0.3 c -14.9,-0.1 -27.4,0.1 -27.6,0.5 z"
       id="path29"
       style="fill:#353230;fill-opacity:1;stroke:none;stroke-width:0.1" />
    <path
       d="m 84.5681,175.76395 c -19.2,6.9 -25,33.1 -10.5,47.3 12.2,11.9 30.6,11.3 41.7,-1.3 9.2,-10.5 9.2,-26.3 0.1,-37.3 -1.9,-2.2 -2.1,-2.3 -3.9,-0.7 -1.7,1.6 -2.1,1.5 -6.5,-0.8 -2.6,-1.4 -6.7,-2.8 -9.1,-3.2 -3.9,-0.5 -4.5,-1 -4.5,-3 0,-2.8 -1.6,-3 -7.3,-1 z"
       id="path30"
       style="fill:#353230;fill-opacity:1;stroke:none;stroke-width:0.1" />
    <path
       d="m 250.4681,211.66395 c -2.1,1.2 -4.7,3.8 -5.7,5.7 -2.3,4.3 -2.5,12.9 -0.4,17 2.2,4.3 7.6,7.9 12.8,8.6 5.6,0.8 12.6,-2.2 15.9,-6.8 2.2,-3.2 3.5,-10.9 2.4,-15.1 -0.9,-3.7 -4.7,-8.1 -5.6,-6.6 -0.6,0.9 -1.6,0.8 -4.3,-0.4 -1.9,-1 -4.4,-1.7 -5.6,-1.7 -1.2,0 -2.1,-0.6 -2.1,-1.5 0,-2.1 -2.9,-1.8 -7.4,0.8 z"
       id="path31"
       style="fill:#353230;fill-opacity:1;stroke:none;stroke-width:0.1" />
  </g>
  <path
     style="fill:#f4f4f3;fill-opacity:1;fill-rule:evenodd;stroke-width:1.09965;paint-order:fill markers stroke"
     d="m 126.38523,144.10297 c 1.17703,-4.22851 0.26196,-23.31345 -1.40822,-29.37001 C 118.71987,92.042704 99.085814,72.664587 76.307107,66.697489 68.463952,64.642894 51.282742,64.609444 43.721909,66.634039 32.601227,69.611869 24.969817,73.375534 16.398958,80.109184 11.249059,84.155172 10.507538,84.150837 6.6739945,80.052334 5.1633017,78.437217 4.8662567,77.546607 5.4365822,76.342257 6.2866712,74.547139 11.697076,68.557639 22.336039,57.633987 l 7.285888,-7.480853 8.052833,-1.812652 c 4.429054,-0.99696 8.308459,-2.085263 8.620894,-2.41845 0.809693,-0.863483 6.445478,-26.013278 5.993243,-26.745 -0.206498,-0.334118 -1.691348,-0.854355 -3.29967,-1.15608 -1.608323,-0.301725 -3.12969,-1.084028 -3.380813,-1.738463 -0.466027,-1.214437 2.80506,-15.006033 3.826958,-16.13527577 0.309667,-0.34219725 19.846545,-0.06717 43.415287,0.611172 23.568731,0.67834207 43.495631,1.23673957 44.281991,1.24088327 1.3641,0.0072 5.58225,6.9388605 5.58225,9.1732755 0,0.53415 -1.37601,2.160645 -3.0578,3.614438 l -3.0578,2.643262 6.29554,15.180413 c 3.46254,8.349225 7.39632,17.629845 8.74173,20.623597 l 2.4462,5.443193 4.83407,0.96207 c 2.65875,0.529132 5.66933,1.185592 6.69019,1.458787 1.82924,0.489533 1.85613,0.383498 1.85613,-7.321297 0,-11.10183 0.72765,-15.601793 2.6021,-16.09197 1.3542,-0.354135 1.5226,-1.325595 1.5226,-8.78343 v -8.385263 l 4.74342,-4.62378 c 8.17269,-7.966575 10.93047,-8.2666425 10.93047,-1.18932 0,3.476985 -0.53649,5.103233 -2.88729,8.752043 -2.13065,3.307102 -2.88729,5.389935 -2.88729,7.947892 0,4.17822 0.64169,6.076118 2.0544,6.076118 1.6398,0 2.04689,2.863785 2.05904,14.485042 0.008,7.342448 0.33961,11.196915 1.04244,12.1047 0.66748,0.862148 4.95901,2.103675 12.16789,3.52014 6.12519,1.203525 16.18428,3.318818 22.35353,4.70064 l 11.21683,2.512403 3.43917,13.7175 c 3.47688,13.867888 4.29101,21.713498 2.38143,22.949398 -0.56715,0.36707 -6.04269,0.68413 -12.16789,0.70459 -9.96267,0.0333 -11.702,0.26041 -16.49883,2.15458 -2.94917,1.16457 -6.50957,2.81834 -7.91201,3.67504 -8.47656,5.17809 -16.33587,15.61203 -19.34873,25.6872 l -1.04844,3.506 H 153.37507 125.52412 Z M 143.53984,81.411934 V 68.423637 l -9.54579,-24.13407 -9.54581,-24.134078 H 97.284142 c -14.940255,0 -27.1641,0.102188 -27.1641,0.227078 0,0.124897 -0.928058,5.5179 -2.062358,11.98446 -1.134292,6.46656 -2.06235,12.118342 -2.06235,12.559522 0,0.491625 6.626138,0.82803 17.117535,0.869025 l 17.117541,0.0669 6.3621,9.659828 c 3.49915,5.31291 11.03255,16.233907 16.74089,24.268882 l 10.3788,14.609055 h 4.91382 4.91382 z"
     id="path86" />
  <path
     style="fill:#f4f4f3;fill-opacity:1;fill-rule:evenodd;stroke-width:1.09965;paint-order:fill markers stroke"
     d="m 214.57114,191.26281 c -10.21524,-2.74704 -18.71718,-9.97854 -23.43096,-19.92973 -2.53394,-5.34935 -2.64102,-5.99417 -2.64102,-15.90512 0,-9.97721 0.0911,-10.5147 2.66862,-15.74985 8.19309,-16.64064 25.19238,-24.64347 42.67434,-20.09001 11.06608,2.88235 18.13628,8.76525 23.57098,19.61267 l 3.386,6.75832 -0.265,10.36085 c -0.2531,9.8954 -0.39065,10.6081 -3.06177,15.86491 -7.92418,15.5949 -25.98572,23.62678 -42.90119,19.07796 z m 14.25625,-19.66098 c 6.22487,-1.87342 9.34175,-4.76811 10.8979,-10.12104 0.76862,-2.64398 1.17517,-6.13342 0.9487,-8.14272 -0.47359,-4.20163 -3.54031,-8.93697 -5.34044,-8.2462 -1.51369,0.58086 -11.00946,-2.67622 -12.27778,-4.21131 -1.36391,-1.6508 -2.88816,-1.36862 -7.12652,1.31927 -5.2928,3.3566 -6.76999,6.43168 -6.79017,14.13524 -0.0146,5.58987 0.22817,6.57189 2.29486,9.28147 2.26596,2.97083 5.52975,5.13055 9.64508,6.38237 3.00358,0.91365 3.47306,0.88959 7.74837,-0.39708 z"
     id="path87" />
  <path
     style="fill:#f4f4f3;fill-opacity:1;fill-rule:evenodd;stroke-width:1.09965;paint-order:fill markers stroke"
     d="M 47.908642,191.67137 C 36.843886,189.5005 27.796464,184.77616 19.363789,176.76594 6.3725155,164.42551 2.6964864e-7,149.31957 2.6964864e-7,130.86441 2.6964864e-7,106.15881 16.174408,83.885757 40.572967,74.993187 c 12.755565,-4.64904 31.845862,-3.40293 44.952375,2.93424 22.045338,10.659217 33.558508,29.661633 33.471838,55.245063 -0.0264,7.79425 -0.42339,10.81146 -2.22507,16.91131 -6.4688,21.90102 -25.303956,38.58073 -46.969108,41.59408 -7.389555,1.02778 -16.636605,1.02504 -21.89436,-0.007 z m 21.66501,-32.5952 c 5.40177,-1.84057 12.96918,-8.95276 15.483495,-14.5521 1.58046,-3.51965 1.949617,-5.74236 1.953825,-11.76405 0.0045,-6.43214 -0.285443,-7.97682 -2.169188,-11.55705 -1.195912,-2.27292 -2.915932,-5.04836 -3.822277,-6.16765 -1.513995,-1.86971 -1.820453,-1.94271 -3.771675,-0.89845 -1.908743,1.02153 -2.617275,0.91515 -6.99756,-1.05061 -2.680583,-1.20297 -6.12663,-2.42511 -7.65789,-2.71587 -4.031438,-0.7655 -5.67141,-1.79385 -5.67141,-3.55631 0,-2.18394 -1.490408,-2.4472 -5.774588,-1.02001 -11.468322,3.82044 -19.064842,14.53053 -19.108548,26.9405 -0.06984,19.83034 18.467021,32.839 37.535816,26.3416 z"
     id="path88" />
</svg>
